<svg width="32" height="32" viewBox="0 0 32 32" fill="none" xmlns="http://www.w3.org/2000/svg">
  <defs>
    <linearGradient id="faviconGradient" x1="0%" y1="0%" x2="100%" y2="100%">
      <stop offset="0%" style="stop-color:#0EA5E9;stop-opacity:1" />
      <stop offset="50%" style="stop-color:#10B981;stop-opacity:1" />
      <stop offset="100%" style="stop-color:#34D399;stop-opacity:1" />
    </linearGradient>
  </defs>
  
  <!-- Background circle -->
  <circle cx="16" cy="16" r="15" fill="url(#faviconGradient)" opacity="0.1"/>
  
  <!-- Main diamond/crystal shape -->
  <path d="M16 4 L26 14 L16 24 L6 14 Z" fill="url(#faviconGradient)" opacity="0.9"/>
  
  <!-- Inner refinement lines -->
  <path d="M16 7 L23 14 L16 21 L9 14 Z" fill="none" stroke="url(#faviconGradient)" stroke-width="1.5" opacity="0.6"/>
  
  <!-- Center dot -->
  <circle cx="16" cy="14" r="1.5" fill="url(#faviconGradient)"/>
  
  <!-- Small sparkles -->
  <g opacity="0.8">
    <path d="M8 8 L9 9 L8 10 L7 9 Z" fill="#34D399"/>
    <path d="M24 8 L25 9 L24 10 L23 9 Z" fill="#0EA5E9"/>
    <path d="M8 20 L9 21 L8 22 L7 21 Z" fill="#10B981"/>
    <path d="M24 20 L25 21 L24 22 L23 21 Z" fill="#34D399"/>
  </g>
</svg>
